<svg xmlns="http://www.w3.org/2000/svg" xmlns:xlink="http://www.w3.org/1999/xlink" viewBox="0 0 22.33 17.47"><defs><style>.cls-1{fill:url(#linear-gradient);}.cls-2{fill:url(#linear-gradient-2);}</style><linearGradient id="linear-gradient" x1="26.4" y1="-9.83" x2="-1.83" y2="20.08" gradientUnits="userSpaceOnUse"><stop offset="0" stop-color="#f19c97"/><stop offset="0.19" stop-color="#f09692"/><stop offset="0.44" stop-color="#ef8682"/><stop offset="0.72" stop-color="#ec6b6a"/><stop offset="0.81" stop-color="#eb6261"/></linearGradient><linearGradient id="linear-gradient-2" x1="8.71" y1="-3.1" x2="12.81" y2="12.61" gradientUnits="userSpaceOnUse"><stop offset="0" stop-color="#52a9ff"/><stop offset="0.11" stop-color="#59acff"/><stop offset="0.28" stop-color="#6cb6ff"/><stop offset="0.48" stop-color="#8bc5ff"/><stop offset="0.7" stop-color="#b7dbff"/><stop offset="0.93" stop-color="#eef7ff"/><stop offset="1" stop-color="#fff"/></linearGradient></defs><g id="Layer_2" data-name="Layer 2"><g id="Layer_1-2" data-name="Layer 1"><path class="cls-1" d="M7.23,17.38.09,10.24a.33.33,0,0,1,0-.45L2.37,7.51a.31.31,0,0,1,.45,0l4.41,4.41a.33.33,0,0,0,.45,0L19.51.09a.33.33,0,0,1,.45,0l2.28,2.28a.33.33,0,0,1,0,.45L7.68,17.38A.33.33,0,0,1,7.23,17.38Z"/><path class="cls-2" d="M7.23,17.38.09,10.24a.33.33,0,0,1,0-.45L2.37,7.51a.31.31,0,0,1,.45,0l4.41,4.41a.33.33,0,0,0,.45,0L19.51.09a.33.33,0,0,1,.45,0l2.28,2.28a.33.33,0,0,1,0,.45L7.68,17.38A.33.33,0,0,1,7.23,17.38Z"/></g></g></svg>