<svg xmlns="http://www.w3.org/2000/svg" xmlns:xlink="http://www.w3.org/1999/xlink" viewBox="0 0 12.91 10.08"><defs><style>.cls-1{fill:url(#linear-gradient);}</style><linearGradient id="linear-gradient" x1="6.46" y1="95.87" x2="6.46" y2="83.08" gradientTransform="matrix(1, 0, 0, -1, 0, 94.23)" gradientUnits="userSpaceOnUse"><stop offset="0.09" stop-color="#320386"/><stop offset="0.42" stop-color="#330388"/><stop offset="0.6" stop-color="#370390"/><stop offset="0.74" stop-color="#3e029e"/><stop offset="0.86" stop-color="#4901b1"/><stop offset="0.96" stop-color="#5500c9"/><stop offset="1" stop-color="#5b00d4"/></linearGradient></defs><g id="Layer_2" data-name="Layer 2"><g id="Layer_1-2" data-name="Layer 1"><path class="cls-1" d="M4.18,10,.05,5.9a.19.19,0,0,1,0-.26l1.32-1.3a.19.19,0,0,1,.26,0L4.18,6.89a.19.19,0,0,0,.26,0L11.28.05a.19.19,0,0,1,.26,0l1.32,1.29a.19.19,0,0,1,0,.26L4.44,10A.19.19,0,0,1,4.18,10Z"/></g></g></svg>