<svg xmlns="http://www.w3.org/2000/svg" viewBox="0 0 60.44 60.44"><defs><style>.cls-1{fill:#9aff24;}.cls-2{fill:#5b00d4;}</style></defs><g id="Layer_2" data-name="Layer 2"><g id="Layer_1-2" data-name="Layer 1"><path class="cls-1" d="M58,18.58A30.51,30.51,0,0,0,30.1,0,30.22,30.22,0,1,0,60.44,30.34,29.71,29.71,0,0,0,58,18.58Z"/><path class="cls-2" d="M26.08,30a7.83,7.83,0,0,0,7.64.42A1.1,1.1,0,0,0,34.26,29a1.08,1.08,0,0,0-1.45-.53,5.67,5.67,0,0,1-5.54-.28,5.49,5.49,0,1,1,8.44-4.62,1.1,1.1,0,0,1-2.2,0h0A3.3,3.3,0,1,0,32.41,26a3.29,3.29,0,0,0,5.49-2.45A7.69,7.69,0,1,0,26.08,30Zm4.14-5.37a1.1,1.1,0,1,1,1.09-1.23,1,1,0,0,0,0,.3A1.1,1.1,0,0,1,30.22,24.66Z"/><path class="cls-2" d="M46.68,25.9a1.1,1.1,0,0,0-.32-.78l-4.07-4.07V12.58a1.1,1.1,0,0,0-1.1-1.1H19.24a1.1,1.1,0,0,0-1.1,1.1v8.47l-4.07,4.07v0a1.12,1.12,0,0,0-.31.76h0V45.66A3.29,3.29,0,0,0,17.05,49H43.39a3.29,3.29,0,0,0,3.29-3.29V25.9ZM44,25.9l-1.74,1.74V24.16ZM40.1,13.68v7.83h0v8.33l-6,5.94H26.28l-5.94-5.94V21.51h0V13.68Zm-22,14L16.4,25.9l1.74-1.74ZM16,45.2V28.55l8.32,8.33Zm1.55,1.56L26.28,38h7.87l8.79,8.79Zm27-1.56-8.33-8.32,8.33-8.33Z"/></g></g></svg>