<svg xmlns="http://www.w3.org/2000/svg" xmlns:xlink="http://www.w3.org/1999/xlink" viewBox="0 0 87.88 79"><defs><style>.cls-1{fill:url(#linear-gradient);}</style><linearGradient id="linear-gradient" y1="39.5" x2="87.88" y2="39.5" gradientUnits="userSpaceOnUse"><stop offset="0" stop-color="#fff"/><stop offset="1" stop-color="#dff9be"/></linearGradient></defs><g id="Layer_2" data-name="Layer 2"><g id="Layer_1-2" data-name="Layer 1"><path class="cls-1" d="M65.22,3.83A18.82,18.82,0,0,1,78.48,9.21a18.06,18.06,0,0,1,5.5,13,40.31,40.31,0,0,1-1.72,11.58,47.49,47.49,0,0,1-4.57,10.38A71,71,0,0,1,63.44,61.05,105.7,105.7,0,0,1,48.9,71.81c-2.07,1.28-3.78,2.24-5,2.87-1.17-.63-2.89-1.59-4.95-2.87A104.39,104.39,0,0,1,24.45,61.05,70.82,70.82,0,0,1,10.2,44.17,47.06,47.06,0,0,1,5.62,33.79,40.31,40.31,0,0,1,3.9,22.21a18.1,18.1,0,0,1,5.5-13A18.82,18.82,0,0,1,22.66,3.83c4.93,0,9.35,2.1,13.14,6.24a83.7,83.7,0,0,1,8,12.14,88.71,88.71,0,0,1,8.23-12C55.93,6,60.36,3.83,65.22,3.83m0-3.83C50.7,0,43.94,15.4,43.94,15.4S37.52,0,22.66,0A22.44,22.44,0,0,0,0,22.21C0,58,43.94,79,43.94,79S87.88,58,87.88,22.21A22.43,22.43,0,0,0,65.22,0Z"/></g></g></svg>