<svg xmlns="http://www.w3.org/2000/svg" viewBox="0 0 61.15 61.15"><defs><style>.cls-1{fill:#9aff24;}.cls-2{fill:#5b00d4;}</style></defs><g id="Layer_2" data-name="Layer 2"><g id="Layer_1-2" data-name="Layer 1"><path class="cls-1" d="M58.71,18.8A30.87,30.87,0,0,0,30.45,0a30.58,30.58,0,1,0,30.7,30.69A30,30,0,0,0,58.71,18.8Z"/><path class="cls-2" d="M48.83,39.72,44,34.93a3.38,3.38,0,0,0-4.78,0l-2.18,2.18a2.57,2.57,0,0,1-3.62,0L24,27.67a2.56,2.56,0,0,1,0-3.62l2.18-2.18a3.38,3.38,0,0,0,0-4.78l-4.79-4.77a3.38,3.38,0,0,0-4.78,0L14.9,14.05a12.2,12.2,0,0,0,0,17.25L29.83,46.24a12.2,12.2,0,0,0,17.26,0l1.74-1.74A3.4,3.4,0,0,0,48.83,39.72Zm-6.38-3.19,4.78,4.78a1.13,1.13,0,0,1,0,1.6l-.8.79-6.38-6.38.8-.79A1.13,1.13,0,0,1,42.45,36.53ZM19.83,13.92l4.78,4.76a1.13,1.13,0,0,1,0,1.6l-.8.8L17.44,14.7l.79-.78A1.13,1.13,0,0,1,19.83,13.92Zm11.6,30.72L16.49,29.7a9.91,9.91,0,0,1-.62-13.38l6.36,6.36a4.82,4.82,0,0,0,.21,6.59l9.42,9.43h0a4.82,4.82,0,0,0,6.59.21l6.36,6.36A9.9,9.9,0,0,1,31.43,44.64Z"/></g></g></svg>