<svg xmlns="http://www.w3.org/2000/svg" xmlns:xlink="http://www.w3.org/1999/xlink" viewBox="0 0 95.64 87.41"><defs><style>.cls-1{fill:none;}.cls-2{isolation:isolate;}.cls-3{fill:url(#radial-gradient);}.cls-4{fill:url(#radial-gradient-2);}.cls-5{clip-path:url(#clip-path);}.cls-15,.cls-16,.cls-17,.cls-18,.cls-19,.cls-20,.cls-21,.cls-22,.cls-6,.cls-7{mix-blend-mode:screen;}.cls-6{fill:url(#radial-gradient-3);}.cls-7{fill:url(#radial-gradient-4);}.cls-8{fill:#fff;}.cls-9{fill:#ffed1d;}.cls-10{fill:#ffe000;}.cls-11{fill:#ffc900;}.cls-12{fill:url(#radial-gradient-5);}.cls-13{fill:url(#radial-gradient-6);}.cls-14{clip-path:url(#clip-path-2);}.cls-15{fill:url(#radial-gradient-7);}.cls-16{fill:url(#radial-gradient-8);}.cls-17{fill:url(#radial-gradient-9);}.cls-18{fill:url(#radial-gradient-10);}.cls-19{fill:url(#radial-gradient-11);}.cls-20{fill:url(#radial-gradient-12);}.cls-21{fill:url(#radial-gradient-13);}.cls-22{fill:url(#radial-gradient-14);}</style><radialGradient id="radial-gradient" cx="55.38" cy="48.83" r="29.44" gradientUnits="userSpaceOnUse"><stop offset="0" stop-color="#aa9800"/><stop offset="0.28" stop-color="#aa9400"/><stop offset="0.54" stop-color="#aa8900"/><stop offset="0.79" stop-color="#aa7600"/><stop offset="1" stop-color="#aa6100"/></radialGradient><radialGradient id="radial-gradient-2" cx="55.4" cy="48.97" r="28.32" gradientUnits="userSpaceOnUse"><stop offset="0" stop-color="#ffe400"/><stop offset="0.23" stop-color="#ffe000"/><stop offset="0.45" stop-color="#ffd500"/><stop offset="0.66" stop-color="#ffc200"/><stop offset="0.86" stop-color="#ffa800"/><stop offset="1" stop-color="#ff9200"/></radialGradient><clipPath id="clip-path" transform="translate(8.87 5.46)"><path class="cls-1" d="M58.53,28c-1.51-3.05-4-3.05-5.48,0l-4.13,8.37a13.25,13.25,0,0,1-8.87,6.44L30.81,44.1c-3.37.49-4.13,2.84-1.69,5.21l6.68,6.52a13.21,13.21,0,0,1,3.39,10.42l-1.58,9.2C37,78.81,39,80.26,42,78.67l8.27-4.34a13.19,13.19,0,0,1,11,0l8.26,4.34c3,1.59,5,.14,4.43-3.22l-1.58-9.2a13.25,13.25,0,0,1,3.39-10.42l6.68-6.52c2.44-2.37,1.68-4.72-1.69-5.21l-9.24-1.34a13.21,13.21,0,0,1-8.86-6.44Z"/></clipPath><radialGradient id="radial-gradient-3" cx="40.02" cy="34.17" r="25.64" gradientTransform="translate(20.81 -14.03) rotate(26.35)" gradientUnits="userSpaceOnUse"><stop offset="0" stop-color="#fff" stop-opacity="0.7"/><stop offset="0.3" stop-color="#fff" stop-opacity="0.53"/><stop offset="0.84" stop-color="#fff" stop-opacity="0.2"/></radialGradient><radialGradient id="radial-gradient-4" cx="46.93" cy="40.65" r="29.47" gradientTransform="translate(52.78 -20.27) rotate(51.66)" gradientUnits="userSpaceOnUse"><stop offset="0" stop-color="#fff" stop-opacity="0.7"/><stop offset="0.25" stop-color="#fff" stop-opacity="0.53"/><stop offset="0.83" stop-color="#fff" stop-opacity="0.11"/><stop offset="0.84" stop-color="#fff" stop-opacity="0.1"/></radialGradient><radialGradient id="radial-gradient-5" cx="13.52" cy="-439.67" r="19.33" gradientTransform="translate(114.95 445.72) rotate(-14.29)" xlink:href="#radial-gradient"/><radialGradient id="radial-gradient-6" cx="13.53" cy="-439.58" r="18.6" gradientTransform="translate(114.95 445.72) rotate(-14.29)" xlink:href="#radial-gradient-2"/><clipPath id="clip-path-2" transform="translate(8.87 5.46)"><path class="cls-1" d="M18.11,2.53c-1.45-1.7-3-1.3-3.48.89l-1.28,6A8.69,8.69,0,0,1,8.76,15L3.1,17.3C1,18.16.93,19.78,2.87,20.89L8.17,24A8.67,8.67,0,0,1,12,30l.49,6.11c.17,2.23,1.68,2.83,3.34,1.33l4.55-4.1a8.68,8.68,0,0,1,7-1.78l6,1.42c2.17.52,3.21-.72,2.3-2.76l-2.5-5.6a8.67,8.67,0,0,1,.47-7.18l3.19-5.23c1.17-1.91.3-3.28-1.92-3l-6.1.64A8.68,8.68,0,0,1,22.1,7.19Z"/></clipPath><radialGradient id="radial-gradient-7" cx="3.43" cy="-449.29" r="16.84" gradientTransform="translate(-193.68 410.57) rotate(26.35)" xlink:href="#radial-gradient-3"/><radialGradient id="radial-gradient-8" cx="7.97" cy="-445.04" r="19.35" gradientTransform="translate(-338.58 282.91) rotate(51.66)" xlink:href="#radial-gradient-4"/><radialGradient id="radial-gradient-9" cx="32.74" cy="28.28" r="14.42" gradientUnits="userSpaceOnUse"><stop offset="0" stop-color="#fff" stop-opacity="0.7"/><stop offset="0.01" stop-color="#fdf8ed" stop-opacity="0.69"/><stop offset="0.03" stop-color="#f5e1b4" stop-opacity="0.66"/><stop offset="0.05" stop-color="#eecf85" stop-opacity="0.64"/><stop offset="0.07" stop-color="#e9c060" stop-opacity="0.62"/><stop offset="0.09" stop-color="#e6b646" stop-opacity="0.61"/><stop offset="0.12" stop-color="#e4b036" stop-opacity="0.6"/><stop offset="0.14" stop-color="#e3ae31" stop-opacity="0.6"/><stop offset="0.25" stop-color="#bf9326" stop-opacity="0.46"/><stop offset="0.41" stop-color="#947218" stop-opacity="0.3"/><stop offset="0.56" stop-color="#71580e" stop-opacity="0.17"/><stop offset="0.71" stop-color="#594506" stop-opacity="0.07"/><stop offset="0.86" stop-color="#4a3a02" stop-opacity="0.02"/><stop offset="1" stop-color="#453600" stop-opacity="0"/></radialGradient><radialGradient id="radial-gradient-10" cx="73.08" cy="32.4" r="8.42" xlink:href="#radial-gradient-9"/><radialGradient id="radial-gradient-11" cx="33.68" cy="66.55" r="8.42" xlink:href="#radial-gradient-9"/><radialGradient id="radial-gradient-12" cx="46.48" cy="17.16" r="7.71" xlink:href="#radial-gradient-9"/><radialGradient id="radial-gradient-13" cx="80.74" cy="71.42" r="6.03" xlink:href="#radial-gradient-9"/><radialGradient id="radial-gradient-14" cx="52.18" cy="49.05" r="32.9" gradientUnits="userSpaceOnUse"><stop offset="0" stop-color="#fff" stop-opacity="0.7"/><stop offset="0.01" stop-color="#fdf8ed" stop-opacity="0.69"/><stop offset="0.06" stop-color="#f5e1b4" stop-opacity="0.66"/><stop offset="0.1" stop-color="#eecf85" stop-opacity="0.64"/><stop offset="0.15" stop-color="#e9c060" stop-opacity="0.62"/><stop offset="0.2" stop-color="#e6b646" stop-opacity="0.61"/><stop offset="0.25" stop-color="#e4b036" stop-opacity="0.6"/><stop offset="0.3" stop-color="#e3ae31" stop-opacity="0.6"/><stop offset="0.39" stop-color="#d9a72e" stop-opacity="0.56"/><stop offset="0.54" stop-color="#bf9326" stop-opacity="0.46"/><stop offset="0.73" stop-color="#947218" stop-opacity="0.3"/><stop offset="0.94" stop-color="#594506" stop-opacity="0.07"/><stop offset="1" stop-color="#453600" stop-opacity="0"/></radialGradient></defs><g class="cls-2"><g id="Layer_2" data-name="Layer 2"><g id="Layer_1-2" data-name="Layer 1"><path class="cls-3" d="M71.75,81.57a7.08,7.08,0,0,1-3.27-.91l-8.26-4.34a11,11,0,0,0-8.87,0l-8.26,4.34a7,7,0,0,1-3.27.91A4.38,4.38,0,0,1,36.41,80a5.84,5.84,0,0,1-1-5L37,65.87a11,11,0,0,0-2.74-8.43l-6.68-6.51c-2.47-2.4-2.25-4.56-1.9-5.62s1.44-2.94,4.84-3.43l9.24-1.35a11,11,0,0,0,7.17-5.21L51,27c1.52-3.08,3.63-3.54,4.76-3.54S59,23.87,60.54,27l4.13,8.37a11,11,0,0,0,7.18,5.21l9.23,1.35c3.41.49,4.5,2.36,4.84,3.43s.57,3.22-1.9,5.62l-6.68,6.51a11,11,0,0,0-2.74,8.43l1.58,9.2a5.84,5.84,0,0,1-1,5A4.38,4.38,0,0,1,71.75,81.57Z" transform="translate(8.87 5.46)"/><path class="cls-4" d="M84.85,45.65c-.26-.82-1.13-2.25-3.93-2.66l-9.24-1.34a12.13,12.13,0,0,1-8-5.83l-4.14-8.37c-1.25-2.54-2.88-2.92-3.74-2.92s-2.5.38-3.75,2.92l-4.13,8.37a12.17,12.17,0,0,1-8,5.83L30.65,43c-2.8.41-3.67,1.84-3.93,2.66s-.41,2.5,1.61,4.47L35,56.64a12.12,12.12,0,0,1,3.06,9.42l-1.58,9.2a4.75,4.75,0,0,0,.77,4,3.21,3.21,0,0,0,2.55,1.13,6,6,0,0,0,2.75-.77l8.26-4.34a12.11,12.11,0,0,1,9.91,0L69,79.67a6,6,0,0,0,2.75.77h0a3.21,3.21,0,0,0,2.55-1.13,4.75,4.75,0,0,0,.77-4l-1.58-9.2a12.12,12.12,0,0,1,3.06-9.42l6.69-6.52C85.26,48.15,85.12,46.47,84.85,45.65Z" transform="translate(8.87 5.46)"/><g class="cls-5"><circle class="cls-6" cx="40.36" cy="37.42" r="25.82" transform="translate(-3.55 27.27) rotate(-26.35)"/><circle class="cls-7" cx="47.33" cy="44.39" r="29.68" transform="translate(-7.98 59.43) rotate(-51.66)"/></g><path class="cls-8" d="M53.36,28.73s-3,6.56-4.4,10.81,7.89-6.32,7.95-10S54.74,25.64,53.36,28.73Z" transform="translate(8.87 5.46)"/><path class="cls-8" d="M47.87,43.4a1.06,1.06,0,1,1-1.06-1.06A1.06,1.06,0,0,1,47.87,43.4Z" transform="translate(8.87 5.46)"/><path class="cls-9" d="M50.58,72.92c.28.57-3.36,2.69-3.79,2.91-1.57.8-5,2.55-5.89,1.61S50.3,72.36,50.58,72.92Z" transform="translate(8.87 5.46)"/><path class="cls-10" d="M81.58,47c-.75,1.87-4.61,5.83-5.81,7.5s6.62-3.84,7.36-6S82.33,45.16,81.58,47Z" transform="translate(8.87 5.46)"/><path class="cls-9" d="M53.11,72.41a.65.65,0,1,1-.65-.65A.65.65,0,0,1,53.11,72.41Z" transform="translate(8.87 5.46)"/><path class="cls-11" d="M64.73,74.09a15.5,15.5,0,0,1,1.41.74,33.94,33.94,0,0,0,5.55,2c.77.25,1.92,1.26.87,1.94-1.42.92-3.35-.24-4.63-.9a15.12,15.12,0,0,1-3.14-2.14C63.53,74.66,63.26,73.5,64.73,74.09Z" transform="translate(8.87 5.46)"/><path class="cls-12" d="M35.22,34.5a4.57,4.57,0,0,1-2.23,0L27,33a6.47,6.47,0,0,0-3,.12,6.67,6.67,0,0,0-2.67,1.31l-4.55,4.11a4.73,4.73,0,0,1-1.94,1.1,2.86,2.86,0,0,1-2.41-.42,3.82,3.82,0,0,1-1.46-3l-.48-6.11a7.24,7.24,0,0,0-3.11-4.92L2.13,22.17C.17,21.05,0,19.64,0,18.91s.43-2.11,2.52-3l5.66-2.35a7.22,7.22,0,0,0,3.72-4.48l1.27-6C13.65.9,14.92.27,15.63.09s2.14-.24,3.61,1.48l4,4.66a7.26,7.26,0,0,0,5.41,2.15l6.09-.64C37,7.5,38,8.51,38.36,9.13s.88,2-.3,3.89l-3.19,5.23a7.22,7.22,0,0,0-.38,5.81L37,29.65A3.81,3.81,0,0,1,37.14,33,2.86,2.86,0,0,1,35.22,34.5Z" transform="translate(8.87 5.46)"/><path class="cls-13" d="M37.74,9.53c-.31-.48-1.09-1.25-2.94-1.06l-6.09.64a8,8,0,0,1-6.05-2.4l-4-4.66C17.47.64,16.36.66,15.82.8s-1.53.65-1.92,2.47l-1.27,6a8,8,0,0,1-4.16,5L2.81,16.62C1.1,17.33.78,18.39.74,19s.15,1.66,1.76,2.58L7.8,24.6a7.93,7.93,0,0,1,3.48,5.5l.49,6.11a3.11,3.11,0,0,0,1.15,2.45,2.1,2.1,0,0,0,1.8.3A3.81,3.81,0,0,0,16.34,38l4.56-4.1a7.13,7.13,0,0,1,3-1.48,7.16,7.16,0,0,1,3.32-.13l6,1.42a3.9,3.9,0,0,0,1.88,0h0a2.14,2.14,0,0,0,1.44-1.13A3.14,3.14,0,0,0,36.31,30l-2.49-5.59a7.94,7.94,0,0,1,.42-6.5l3.19-5.23C38.4,11.05,38,10,37.74,9.53Z" transform="translate(8.87 5.46)"/><g class="cls-14"><circle class="cls-15" cx="8.09" cy="11.5" r="16.96" transform="translate(3.33 13.51) rotate(-40.65)"/><circle class="cls-16" cx="13.65" cy="14.81" r="19.49" transform="translate(3.44 26.7) rotate(-65.95)"/></g><path class="cls-8" d="M15,3.86s-.87,4.67-1,7.59,4-5.29,3.44-7.63S15.33,1.68,15,3.86Z" transform="translate(8.87 5.46)"/><path class="cls-8" d="M13.83,14.09a.69.69,0,1,1-.84-.5A.68.68,0,0,1,13.83,14.09Z" transform="translate(8.87 5.46)"/><path class="cls-9" d="M20.35,32.44c.27.31-1.7,2.25-1.94,2.46-.87.77-2.78,2.44-3.49,2S20.08,32.13,20.35,32.44Z" transform="translate(8.87 5.46)"/><path class="cls-10" d="M35.88,10.94c-.17,1.31-2,4.46-2.48,5.72s3.59-3.52,3.71-5S36.05,9.62,35.88,10.94Z" transform="translate(8.87 5.46)"/><path class="cls-9" d="M21.87,31.7a.43.43,0,0,1-.3.52.42.42,0,0,1-.52-.31.43.43,0,0,1,.3-.52A.42.42,0,0,1,21.87,31.7Z" transform="translate(8.87 5.46)"/><path class="cls-11" d="M29.54,30.89a8.83,8.83,0,0,1,1,.24,22.51,22.51,0,0,0,3.85.36c.53,0,1.43.49.87,1.09-.75.82-2.17.39-3.09.18a10.59,10.59,0,0,1-2.35-.85C28.87,31.44,28.51,30.75,29.54,30.89Z" transform="translate(8.87 5.46)"/><path class="cls-9" d="M38.7,28.28c-5.11.47-5.49.85-6,5.95-.47-5.1-.85-5.48-6-5.95,5.1-.47,5.48-.85,6-6C33.21,27.43,33.59,27.81,38.7,28.28Z" transform="translate(8.87 5.46)"/><path class="cls-17" d="M47.07,26.63a14.42,14.42,0,1,0-12.68,16A14.42,14.42,0,0,0,47.07,26.63Z" transform="translate(8.87 5.46)"/><path class="cls-9" d="M76.55,32.4c-3,.28-3.2.5-3.47,3.48-.28-3-.5-3.2-3.48-3.48,3-.27,3.2-.49,3.48-3.47C73.35,31.91,73.57,32.13,76.55,32.4Z" transform="translate(8.87 5.46)"/><path class="cls-18" d="M81.44,31.44A8.42,8.42,0,1,0,74,40.76,8.42,8.42,0,0,0,81.44,31.44Z" transform="translate(8.87 5.46)"/><path class="cls-9" d="M37.16,66.55c-3,.27-3.21.49-3.48,3.47-.27-3-.5-3.2-3.48-3.47,3-.28,3.21-.5,3.48-3.48C34,66.05,34.18,66.27,37.16,66.55Z" transform="translate(8.87 5.46)"/><path class="cls-19" d="M42,65.59a8.41,8.41,0,1,0-7.4,9.32A8.41,8.41,0,0,0,42,65.59Z" transform="translate(8.87 5.46)"/><path class="cls-9" d="M49.67,17.16c-2.73.25-2.93.46-3.19,3.19-.25-2.73-.45-2.94-3.18-3.19,2.73-.25,2.93-.45,3.18-3.18C46.74,16.71,46.94,16.91,49.67,17.16Z" transform="translate(8.87 5.46)"/><path class="cls-20" d="M54.15,16.28a7.72,7.72,0,1,0-6.79,8.54A7.71,7.71,0,0,0,54.15,16.28Z" transform="translate(8.87 5.46)"/><path class="cls-9" d="M83.23,71.42c-2.13.2-2.29.36-2.49,2.49-.2-2.13-.35-2.29-2.49-2.49,2.14-.19,2.29-.35,2.49-2.49C80.94,71.07,81.1,71.23,83.23,71.42Z" transform="translate(8.87 5.46)"/><path class="cls-21" d="M86.73,70.74a6,6,0,1,0-5.3,6.67A6,6,0,0,0,86.73,70.74Z" transform="translate(8.87 5.46)"/><path class="cls-22" d="M84.86,45.3A32.89,32.89,0,1,0,55.93,81.73,32.89,32.89,0,0,0,84.86,45.3Z" transform="translate(8.87 5.46)"/></g></g></g></svg>